<?xml version="1.0" encoding="UTF-8"?>
<svg xmlns="http://www.w3.org/2000/svg" xmlns:xlink="http://www.w3.org/1999/xlink" width="10pt" height="10pt" viewBox="0 0 10 10" version="1.1">
<g id="surface469900">
<path style=" stroke:none;fill-rule:nonzero;fill:rgb(83.921569%,0%,5.098039%);fill-opacity:1;" d="M 5 10 C 2.238281 10 0 7.761719 0 5 C 0 2.238281 2.238281 0 5 0 C 7.761719 0 10 2.238281 10 5 C 10 7.761719 7.761719 10 5 10 Z M 5 10 "/>
<path style=" stroke:none;fill-rule:nonzero;fill:rgb(100%,100%,100%);fill-opacity:1;" d="M 7.921875 2.476562 L 7.375 2.105469 C 7.222656 2.003906 7.015625 2.042969 6.914062 2.191406 L 4.234375 6.144531 L 3.003906 4.910156 C 2.875 4.78125 2.664062 4.78125 2.535156 4.910156 L 2.066406 5.378906 C 1.9375 5.507812 1.9375 5.71875 2.066406 5.847656 L 3.960938 7.742188 C 4.066406 7.847656 4.234375 7.929688 4.382812 7.929688 C 4.535156 7.929688 4.6875 7.835938 4.785156 7.691406 L 8.007812 2.933594 C 8.109375 2.785156 8.070312 2.578125 7.921875 2.476562 Z M 7.921875 2.476562 "/>
</g>
</svg>
